# Blender 4.5.3 LTS
# www.blender.org
mtllib chest.mtl
o chest
v -0.800000 0.000000 0.500000
v -0.800000 0.600000 0.500000
v -0.800000 -0.000000 -0.500000
v -0.800000 0.600000 -0.500000
v 0.800000 0.000000 0.500000
v 0.800000 0.600000 0.500000
v 0.800000 -0.000000 -0.500000
v 0.800000 0.600000 -0.500000
v 0.750000 0.600000 -0.400000
v 0.750000 -0.000000 -0.400000
v -0.800000 0.600000 0.400000
v -0.800000 0.600000 -0.400000
v -0.800000 0.000000 0.400000
v 0.750000 0.000000 0.400000
v -0.750000 0.600000 -0.400000
v -0.800000 -0.000000 -0.400000
v -0.750000 0.600000 0.400000
v -0.750000 0.000000 0.400000
v 0.800000 0.600000 0.400000
v 0.800000 -0.000000 -0.400000
v 0.800000 0.000000 0.400000
v 0.800000 0.600000 -0.400000
v -0.750000 -0.000000 -0.400000
v 0.750000 0.600000 0.400000
v 0.350000 -0.000000 -0.500000
v -0.350000 -0.000000 -0.500000
v -0.350000 0.600000 -0.500000
v 0.350000 0.600000 -0.500000
v -0.350000 0.000000 0.500000
v 0.350000 0.000000 0.500000
v 0.350000 0.600000 0.500000
v -0.350000 0.600000 0.500000
v -0.650000 0.600000 0.400000
v 0.650000 0.600000 0.400000
v -0.650000 0.600000 -0.400000
v 0.650000 0.600000 -0.400000
v 0.650000 0.600000 -0.500000
v 0.650000 0.000000 0.500000
v 0.650000 -0.000000 -0.500000
v 0.650000 0.600000 0.500000
v -0.650000 -0.000000 -0.500000
v -0.650000 0.600000 0.500000
v -0.650000 0.600000 -0.500000
v -0.650000 0.000000 0.500000
v -0.605000 0.025000 0.600000
v -0.650000 0.000000 0.575000
v -0.350000 0.000000 0.575000
v -0.395000 0.025000 0.600000
v 0.605000 0.500000 0.600000
v 0.650000 0.525000 0.575000
v 0.350000 0.525000 0.575000
v 0.395000 0.500000 0.600000
v 0.350000 0.000000 0.575000
v 0.395000 0.025000 0.600000
v -0.395000 0.500000 0.600000
v -0.350000 0.525000 0.575000
v 0.650000 0.000000 0.575000
v 0.605000 0.025000 0.600000
v -0.650000 0.525000 0.575000
v -0.605000 0.500000 0.600000
v 0.605000 0.025000 -0.600000
v 0.650000 -0.000000 -0.575000
v 0.350000 -0.000000 -0.575000
v 0.395000 0.025000 -0.600000
v -0.605000 0.500000 -0.600000
v -0.650000 0.525000 -0.575000
v -0.350000 0.525000 -0.575000
v -0.395000 0.500000 -0.600000
v -0.350000 -0.000000 -0.575000
v -0.395000 0.025000 -0.600000
v 0.395000 0.500000 -0.600000
v 0.350000 0.525000 -0.575000
v 0.650000 0.525000 -0.575000
v 0.605000 0.500000 -0.600000
v -0.650000 -0.000000 -0.575000
v -0.605000 0.025000 -0.600000
v -0.800000 0.284998 0.500000
v -0.800000 0.284998 -0.500000
v 0.800000 0.284998 -0.500000
v 0.800000 0.284998 0.500000
v 0.800000 0.284998 0.400000
v 0.800000 0.284998 -0.400000
v 0.750000 0.284998 -0.400000
v 0.750000 0.284998 0.400000
v -0.750000 0.284998 0.400000
v -0.800000 0.284998 -0.400000
v -0.800000 0.284998 0.400000
v -0.750000 0.284998 -0.400000
v -0.350000 0.284998 -0.500000
v 0.350000 0.284998 -0.500000
v 0.350000 0.284998 0.500000
v -0.350000 0.284998 0.500000
v 0.650000 0.284998 0.500000
v 0.650000 0.284998 -0.500000
v -0.650000 0.284998 -0.500000
v -0.650000 0.284998 0.500000
v -0.650000 0.100000 0.400000
v -0.650000 0.100000 -0.400000
v 0.650000 0.100000 0.400000
v 0.650000 0.100000 -0.400000
v 0.150000 0.500000 0.500000
v -0.150000 0.500000 0.500000
v 0.150000 0.500000 0.600000
v -0.150000 0.500000 0.600000
v 0.150000 0.413160 0.500000
v 0.071838 0.334998 0.500000
v 0.127107 0.357891 0.500000
v -0.071838 0.334998 0.500000
v -0.150000 0.413160 0.500000
v -0.127107 0.357891 0.500000
v 0.071838 0.334998 0.600000
v 0.150000 0.413160 0.600000
v 0.127107 0.357891 0.600000
v -0.150000 0.413160 0.600000
v -0.071838 0.334998 0.600000
v -0.127107 0.357891 0.600000
v 0.461832 0.081833 0.625980
v 0.461832 0.158169 0.625980
v 0.538168 0.081833 0.625980
v 0.538168 0.158169 0.625980
v 0.453468 0.073469 0.600000
v 0.453468 0.120001 0.634344
v 0.453468 0.166533 0.600000
v 0.546532 0.073469 0.600000
v 0.546532 0.166533 0.600000
v 0.546532 0.120001 0.634344
v 0.500000 0.073469 0.634344
v 0.500000 0.166533 0.634344
v 0.435916 0.120001 0.600000
v 0.564084 0.120001 0.600000
v 0.500000 0.120001 0.645803
v 0.500000 0.055917 0.600000
v 0.500000 0.184086 0.600000
v -0.538168 0.081833 0.625980
v -0.538168 0.158169 0.625980
v -0.461832 0.081833 0.625980
v -0.461832 0.158169 0.625980
v -0.546532 0.073469 0.600000
v -0.546532 0.120001 0.634344
v -0.546532 0.166533 0.600000
v -0.453468 0.073469 0.600000
v -0.453468 0.166533 0.600000
v -0.453468 0.120001 0.634344
v -0.500000 0.073469 0.634344
v -0.500000 0.166533 0.634344
v -0.564084 0.120001 0.600000
v -0.435916 0.120001 0.600000
v -0.500000 0.120001 0.645803
v -0.500000 0.055917 0.600000
v -0.500000 0.184086 0.600000
vn -0.0000 1.0000 -0.0000
vn -0.0000 -0.0000 1.0000
vn -0.0000 -0.0000 -1.0000
vn -0.0000 -1.0000 -0.0000
vn 1.0000 -0.0000 -0.0000
vn -1.0000 -0.0000 -0.0000
vn -0.0000 0.7071 -0.7071
vn -0.0000 0.7071 0.7071
vn -0.0000 -0.7071 0.7071
vn -0.4856 -0.0000 0.8742
vn 0.4856 -0.0000 0.8742
vn -0.0000 -0.7071 -0.7071
vn 0.4856 -0.0000 -0.8742
vn -0.4856 -0.0000 -0.8742
vn -0.9808 -0.1951 -0.0000
vn -0.1951 -0.9808 -0.0000
vn 0.1951 -0.9808 -0.0000
vn -0.7071 -0.7071 -0.0000
vn 0.9808 -0.1951 -0.0000
vn 0.7071 -0.7071 -0.0000
vn -0.5319 -0.5319 0.6590
vn -0.6405 -0.0000 0.7679
vn -0.9020 -0.0000 0.4317
vn -0.6324 -0.6324 0.4473
vn -0.5319 0.5319 0.6590
vn -0.6324 0.6324 0.4473
vn 0.9020 -0.0000 0.4317
vn 0.6324 0.6324 0.4473
vn 0.5319 0.5319 0.6590
vn 0.6405 -0.0000 0.7679
vn 0.6324 -0.6324 0.4473
vn 0.5319 -0.5319 0.6590
vn -0.0000 -0.6405 0.7679
vn -0.0000 0.6405 0.7679
vn -0.0000 -0.9020 0.4317
vn -0.0000 0.9020 0.4317
vt 0.568698 0.934377
vt 0.566032 0.934377
vt 0.564699 0.934377
vt 0.568698 0.858348
vt 0.568698 0.918752
vt 0.566032 0.918752
vt 0.566032 0.858348
vt 0.566032 0.801245
vt 0.564699 0.801245
vt 0.564699 0.858348
vt 0.598020 0.858348
vt 0.598020 0.918752
vt 0.600686 0.918752
vt 0.600686 0.858348
vt 0.598020 0.934377
vt 0.600686 0.934377
vt 0.566032 0.827098
vt 0.566032 0.856252
vt 0.564699 0.856252
vt 0.564699 0.827098
vt 0.568698 0.801245
vt 0.600686 0.905223
vt 0.600686 0.816870
vt 0.600686 0.801245
vt 0.602019 0.801245
vt 0.598020 0.801245
vt 0.602019 0.934377
vt 0.600686 0.827098
vt 0.600686 0.856252
vt 0.602019 0.856252
vt 0.602019 0.827098
vt 0.564699 0.842723
vt 0.564699 0.871877
vt 0.602019 0.858348
vt 0.602019 0.842723
vt 0.602019 0.871877
vt 0.566032 0.842723
vt 0.566032 0.903127
vt 0.590023 0.934377
vt 0.576695 0.934377
vt 0.153216 0.782101
vt 0.132312 0.782101
vt 0.576695 0.858348
vt 0.576695 0.918752
vt 0.590023 0.918752
vt 0.590023 0.858348
vt 0.156049 0.829003
vt 0.156049 0.797726
vt 0.576695 0.801245
vt 0.590023 0.801245
vt 0.156049 0.910809
vt 0.176953 0.910809
vt 0.173818 0.904156
vt 0.159185 0.904156
vt 0.223020 0.769995
vt 0.215023 0.769995
vt 0.201695 0.769995
vt 0.193698 0.769995
vt 0.153216 0.829003
vt 0.153216 0.899514
vt 0.153216 0.879559
vt 0.176953 0.829003
vt 0.176953 0.899514
vt 0.176953 0.879559
vt 0.132312 0.829003
vt 0.132312 0.797726
vt 0.156049 0.782101
vt 0.176953 0.782101
vt 0.132312 0.879559
vt 0.153216 0.910809
vt 0.132312 0.910809
vt 0.135447 0.904156
vt 0.150080 0.904156
vt 0.150080 0.820002
vt 0.150080 0.888531
vt 0.135447 0.888531
vt 0.135447 0.820002
vt 0.132312 0.899514
vt 0.176953 0.797726
vt 0.153216 0.797726
vt 0.156049 0.899514
vt 0.156049 0.879559
vt 0.150080 0.788752
vt 0.135447 0.788752
vt 0.159185 0.820002
vt 0.159185 0.888531
vt 0.173818 0.888531
vt 0.173818 0.820002
vt 0.159185 0.804377
vt 0.159185 0.872906
vt 0.173818 0.788752
vt 0.159185 0.788752
vt 0.150080 0.872906
vt 0.150080 0.804377
vt 0.173818 0.872906
vt 0.173818 0.804377
vt 0.135447 0.804377
vt 0.135447 0.872906
vt 0.566032 0.832495
vt 0.566032 0.889598
vt 0.568698 0.889598
vt 0.568698 0.832495
vt 0.600686 0.832495
vt 0.600686 0.889598
vt 0.598020 0.889598
vt 0.598020 0.832495
vt 0.590023 0.832495
vt 0.590023 0.889598
vt 0.576695 0.889598
vt 0.576695 0.832495
vt 0.602019 0.816870
vt 0.602019 0.873973
vt 0.566032 0.816870
vt 0.566032 0.905223
vt 0.564699 0.816870
vt 0.564699 0.873973
vt 0.600686 0.903127
vt 0.600686 0.842723
vt 0.176953 0.930764
vt 0.156049 0.930764
vt 0.153216 0.930764
vt 0.132312 0.930764
vt 0.568698 0.871877
vt 0.568698 0.827871
vt 0.598020 0.871877
vt 0.598020 0.827871
vt 0.590023 0.887502
vt 0.576695 0.887502
vt 0.568698 0.843496
vt 0.598020 0.843496
vt 0.568698 0.859121
vt 0.598020 0.859121
vt 0.201695 0.871368
vt 0.215023 0.871368
vt 0.215023 0.896302
vt 0.201695 0.896302
vt 0.215023 0.908777
vt 0.201695 0.908777
vt 0.201695 0.883827
vt 0.201695 0.858893
vt 0.205167 0.825824
vt 0.211551 0.825824
vt 0.202034 0.828055
vt 0.201695 0.825824
vt 0.201695 0.838299
vt 0.202034 0.840530
vt 0.215023 0.858893
vt 0.214684 0.840530
vt 0.215023 0.838299
vt 0.215023 0.825824
vt 0.214684 0.828055
vt 0.215023 0.883827
vt 0.202034 0.853005
vt 0.214684 0.853005
vt 0.205167 0.850775
vt 0.211551 0.850775
vt 0.173325 0.795443
vt 0.170219 0.817256
vt 0.163700 0.817256
vt 0.170219 0.790663
vt 0.173325 0.887155
vt 0.170219 0.843847
vt 0.211299 0.817256
vt 0.204781 0.843847
vt 0.201675 0.887154
vt 0.204781 0.817256
vt 0.204781 0.790663
vt 0.201675 0.795443
vt 0.204781 0.841299
vt 0.187500 0.841299
vt 0.187500 0.814707
vt 0.187500 0.892341
vt 0.170219 0.841299
vt 0.187500 0.756589
vt 0.204781 0.766620
vt 0.187500 0.766620
vt 0.170219 0.766620
vt 0.187500 0.901965
vt 0.170219 0.891934
vt 0.187500 0.915571
vt 0.204781 0.891934
s 1
usemtl texture
f 35/1/1 43/1/1 15/2/1
f 2/2/1 42/1/1 17/2/1 11/3/1
f 96/4/2 42/5/2 2/6/2 77/7/2
f 85/7/3 18/8/3 13/9/3 87/10/3
f 94/11/3 37/12/3 8/13/3 79/14/3
f 37/15/1 36/15/1 9/16/1
f 88/17/2 15/18/2 12/19/2 86/20/2
f 18/8/4 44/21/4 1/9/4 13/9/4
f 83/22/5 84/22/5 14/23/5 10/23/5
f 14/24/4 21/25/4 5/24/4 38/26/4
f 24/16/1 40/15/1 6/27/1 19/27/1
f 84/28/3 24/29/3 19/30/3 81/31/3
f 34/15/1 40/15/1 24/16/1
f 86/32/6 12/33/6 4/33/6 78/32/6
f 8/16/1 37/15/1 9/16/1 22/27/1
f 77/32/6 2/33/6 11/33/6 87/32/6
f 33/1/1 35/1/1 15/2/1 17/2/1
f 83/14/2 10/24/2 20/25/2 82/34/2
f 7/25/4 20/25/4 10/24/4 39/26/4
f 43/1/1 4/3/1 12/3/1 15/2/1
f 81/35/5 19/36/5 6/36/5 80/35/5
f 85/37/6 17/38/6 15/38/6 88/37/6
f 79/35/5 8/36/5 22/36/5 82/35/5
f 3/8/4 41/21/4 23/8/4 16/9/4
f 34/39/1 31/39/1 40/15/1
f 34/39/1 33/40/1 32/40/1 31/39/1
f 37/15/1 28/39/1 36/15/1
f 28/39/1 27/40/1 35/40/1 36/39/1
f 26/41/4 41/42/4 75/42/4 69/41/4
f 89/43/3 27/44/3 28/45/3 90/46/3
f 91/47/6 30/48/6 53/48/6
f 91/46/2 31/45/2 32/44/2 92/43/2
f 26/49/4 25/50/4 30/50/4 29/49/4
f 14/24/4 38/26/4 39/26/4 10/24/4
f 80/14/2 6/13/2 40/12/2 93/11/2
f 42/1/1 33/1/1 17/2/1
f 72/51/7 73/52/7 74/53/7 71/54/7
f 38/55/4 30/56/4 25/56/4 39/55/4
f 44/21/4 18/8/4 23/8/4 41/21/4
f 78/7/3 4/6/3 43/5/3 95/4/3
f 36/15/1 34/15/1 24/16/1 9/16/1
f 29/57/4 44/58/4 41/58/4 26/57/4
f 33/1/1 42/1/1 32/40/1
f 27/40/1 43/1/1 35/40/1
f 92/59/5 32/60/5 56/61/5
f 93/62/5 40/63/5 50/64/5
f 96/65/6 44/66/6 46/66/6
f 30/67/4 38/68/4 57/68/4 53/67/4
f 46/66/6 59/69/6 96/65/6
f 56/70/8 59/71/8 60/72/8 55/73/8
f 50/52/8 51/51/8 52/54/8 49/53/8
f 48/74/2 55/75/2 60/76/2 45/77/2
f 39/68/4 25/67/4 63/67/4 62/68/4
f 95/65/6 43/78/6 66/69/6
f 94/62/5 39/79/5 62/79/5
f 89/59/5 26/80/5 69/80/5
f 90/47/6 28/81/6 72/82/6
f 72/82/6 63/48/6 90/47/6
f 76/77/3 65/76/3 68/75/3 70/74/3
f 66/71/7 67/70/7 68/73/7 65/72/7
f 46/42/9 47/41/9 48/83/9 45/84/9
f 64/85/3 71/86/3 74/87/3 61/88/3
f 51/82/10 53/48/10 54/89/10 52/90/10
f 53/67/9 57/68/9 58/91/9 54/92/9
f 55/93/11 48/94/11 47/80/11 56/61/11
f 49/95/11 58/96/11 57/79/11 50/64/11
f 62/68/12 63/67/12 64/92/12 61/91/12
f 59/69/10 46/66/10 45/97/10 60/98/10
f 67/61/13 69/80/13 70/94/13 68/93/13
f 71/90/14 64/89/14 63/48/14 72/82/14
f 69/41/12 75/42/12 76/84/12 70/83/12
f 73/64/13 62/79/13 61/96/13 74/95/13
f 44/42/4 29/41/4 47/41/4 46/42/4
f 95/65/6 66/69/6 75/66/6
f 58/88/2 49/87/2 52/86/2 54/85/2
f 3/99/3 78/100/3 95/101/3 41/102/3
f 5/103/2 80/104/2 93/105/2 38/106/2
f 30/107/2 91/108/2 92/109/2 29/110/2
f 26/110/3 89/109/3 90/108/3 25/107/3
f 7/111/5 79/112/5 82/112/5 20/111/5
f 18/113/6 85/114/6 88/114/6 23/113/6
f 21/111/5 81/112/5 80/112/5 5/111/5
f 9/29/2 83/28/2 82/31/2 22/30/2
f 1/115/6 77/116/6 87/116/6 13/115/6
f 16/115/6 86/116/6 78/116/6 3/115/6
f 14/24/3 84/14/3 81/34/3 21/25/3
f 9/117/5 24/117/5 84/118/5 83/118/5
f 23/8/2 88/7/2 86/10/2 16/9/2
f 39/106/3 94/105/3 79/104/3 7/103/3
f 17/18/3 85/17/3 87/20/3 11/19/3
f 44/102/2 96/101/2 77/100/2 1/99/2
f 40/119/8 31/120/8 51/51/8 50/52/8
f 32/121/8 42/122/8 59/71/8 56/70/8
f 43/122/7 27/121/7 67/70/7 66/71/7
f 28/120/7 37/119/7 73/52/7 72/51/7
f 37/63/5 94/62/5 73/64/5
f 41/66/6 95/65/6 75/66/6
f 53/48/6 51/82/6 91/47/6
f 29/80/5 92/59/5 47/80/5
f 31/81/6 91/47/6 51/82/6
f 42/78/6 96/65/6 59/69/6
f 50/64/5 57/79/5 93/62/5
f 56/61/5 47/80/5 92/59/5
f 38/79/5 93/62/5 57/79/5
f 69/80/5 67/61/5 89/59/5
f 25/48/6 90/47/6 63/48/6
f 27/60/5 89/59/5 67/61/5
f 94/62/5 62/79/5 73/64/5
f 65/98/14 76/97/14 75/66/14 66/69/14
f 35/123/5 33/123/5 97/124/5 98/124/5
f 34/125/6 36/125/6 100/126/6 99/126/6
f 36/127/2 35/128/2 98/129/2 100/130/2
f 34/127/3 99/130/3 97/129/3 33/128/3
f 97/131/1 99/132/1 100/132/1 98/131/1
f 114/133/2 112/134/2 103/135/2 104/136/2
f 101/137/1 102/138/1 104/138/1 103/137/1
f 102/139/6 109/140/15 114/140/15 104/139/6
f 108/141/16 106/142/17 111/142/17 115/141/16
f 108/141/16 115/141/16 116/143/18 110/144/18
f 110/145/18 116/146/18 114/140/15 109/140/15
f 105/147/19 112/147/19 113/148/20 107/149/20
f 107/150/20 113/151/20 111/142/17 106/142/17
f 105/147/19 101/152/5 103/152/5 112/147/19
f 116/153/2 113/154/2 112/134/2 114/133/2
f 115/155/2 111/156/2 113/154/2 116/153/2
f 117/157/21 122/158/22 129/159/23 121/160/24
f 122/158/22 118/161/25 123/162/26 129/159/23
f 130/163/27 125/164/28 120/165/29 126/166/30
f 124/167/31 130/163/27 126/166/30 119/168/32
f 119/168/32 126/169/30 131/170/2 127/171/33
f 126/169/30 120/165/29 128/172/34 131/170/2
f 131/170/2 128/172/34 118/161/25 122/173/22
f 127/171/33 131/170/2 122/173/22 117/157/21
f 132/174/35 124/175/31 119/168/32 127/176/33
f 121/177/24 132/174/35 127/176/33 117/157/21
f 133/178/36 123/179/26 118/161/25 128/180/34
f 125/181/28 133/178/36 128/180/34 120/165/29
f 134/157/21 139/158/22 146/159/23 138/160/24
f 139/158/22 135/161/25 140/162/26 146/159/23
f 147/163/27 142/164/28 137/165/29 143/166/30
f 141/167/31 147/163/27 143/166/30 136/168/32
f 136/168/32 143/169/30 148/170/2 144/171/33
f 143/169/30 137/165/29 145/172/34 148/170/2
f 148/170/2 145/172/34 135/161/25 139/173/22
f 144/171/33 148/170/2 139/173/22 134/157/21
f 149/174/35 141/175/31 136/168/32 144/176/33
f 138/177/24 149/174/35 144/176/33 134/157/21
f 150/178/36 140/179/26 135/161/25 145/180/34
f 142/181/28 150/178/36 145/180/34 137/165/29
o chest_lid
v -0.708497 0.600000 0.464882
v -0.708497 0.600000 -0.464883
v 0.708497 0.600000 0.464882
v 0.708497 0.600000 -0.464883
v -0.800000 0.751920 0.464882
v -0.800000 0.956940 0.398494
v -0.800000 0.956940 -0.398497
v -0.800000 0.751920 -0.464883
v 0.800000 0.956940 0.398494
v 0.800000 0.751920 0.464882
v 0.800000 0.751920 -0.464883
v 0.800000 0.956940 -0.398497
v -0.800000 1.069427 0.223725
v -0.800000 1.069427 -0.223729
v 0.800000 1.069427 -0.223729
v 0.800000 1.069427 0.223725
v 0.850000 0.500000 -0.495922
v 0.850000 0.500000 -0.600002
v 0.850000 0.500000 0.599998
v 0.850000 0.986715 -0.423889
v 0.850000 0.764255 -0.495922
v 0.850000 0.764255 0.495920
v 0.850000 0.986715 0.423885
v 0.850000 0.500000 0.495920
v 0.850000 1.108771 0.234250
v 0.850000 1.108771 -0.234253
v -0.850000 0.500000 0.495920
v -0.850000 0.500000 0.599998
v -0.850000 0.500000 -0.600002
v -0.850000 0.764255 -0.495922
v -0.850000 0.986715 -0.423889
v -0.850000 0.986715 0.423885
v -0.850000 0.764255 0.495920
v -0.850000 0.500000 -0.495922
v -0.850000 1.108771 -0.234253
v -0.850000 1.108771 0.234250
v 0.604781 0.804479 -0.700001
v 0.395218 0.804479 -0.700001
v 0.394999 0.520000 -0.700001
v 0.605000 0.520000 -0.700001
v -0.604580 1.300000 0.290475
v -0.395421 1.300000 0.290475
v 0.395421 1.300000 0.290475
v 0.604579 1.300000 0.290475
v -0.395219 0.804478 0.699999
v -0.604782 0.804478 0.699999
v -0.604645 1.113518 0.578546
v -0.395356 1.113518 0.578546
v 0.604781 0.804478 0.699999
v 0.395218 0.804478 0.699999
v 0.395355 1.113518 0.578546
v 0.604644 1.113518 0.578546
v -0.559620 0.500000 -0.495922
v 0.559620 0.500000 -0.495922
v 0.559620 0.500000 0.495920
v -0.559620 0.500000 0.495920
v -0.350001 0.500000 0.599998
v -0.650001 0.500000 0.599998
v 0.650000 0.500000 0.599998
v 0.350000 0.500000 0.599998
v 0.650000 0.500000 -0.600002
v 0.350000 0.500000 -0.600002
v -0.350001 0.500000 -0.600002
v -0.650001 0.500000 -0.600002
v -0.395000 0.520000 -0.700001
v -0.605001 0.520000 -0.700001
v -0.604782 0.804479 -0.700001
v -0.395219 0.804479 -0.700001
v 0.604644 1.113518 -0.578550
v 0.395355 1.113518 -0.578550
v 0.395421 1.300000 -0.290479
v 0.604579 1.300000 -0.290479
v -0.395356 1.113518 -0.578550
v -0.604645 1.113518 -0.578550
v -0.604580 1.300000 -0.290479
v -0.395421 1.300000 -0.290479
v 0.605000 0.519999 0.699999
v 0.394999 0.519999 0.699999
v -0.395000 0.519999 0.699999
v -0.605001 0.519999 0.699999
v 0.850000 1.036193 -0.484228
v 0.850000 0.780140 -0.587558
v 0.850000 0.780140 0.587554
v 0.850000 1.036193 0.484224
v 0.850000 1.183450 0.256205
v 0.850000 1.183450 -0.256209
v -0.850000 0.780140 -0.587558
v -0.850000 1.036193 -0.484228
v -0.850000 1.036193 0.484224
v -0.850000 0.780140 0.587554
v -0.850000 1.183450 -0.256209
v -0.850000 1.183450 0.256205
v -0.649723 0.811510 0.578663
v -0.649776 0.747830 0.591941
v -0.649747 0.771729 0.571367
v -0.350225 0.747830 0.591941
v -0.350278 0.811510 0.578663
v -0.350254 0.771729 0.571367
v 0.350277 0.811510 0.578663
v 0.350224 0.747830 0.591941
v 0.350253 0.771729 0.571367
v 0.649775 0.747830 0.591941
v 0.649722 0.811510 0.578663
v 0.649746 0.771729 0.571367
v 0.649599 1.009249 0.500890
v 0.649571 1.057814 0.461068
v 0.649583 1.019280 0.471467
v 0.350428 1.057814 0.461068
v 0.350400 1.009249 0.500890
v 0.350416 1.019280 0.471467
v -0.350401 1.009249 0.500890
v -0.350429 1.057814 0.461068
v -0.350417 1.019280 0.471467
v -0.649572 1.057814 0.461068
v -0.649600 1.009249 0.500890
v -0.649584 1.019280 0.471467
v 0.350224 0.747830 -0.591945
v 0.350277 0.811510 -0.578666
v 0.350253 0.771729 -0.571370
v 0.649722 0.811510 -0.578666
v 0.649775 0.747830 -0.591945
v 0.649746 0.771729 -0.571370
v -0.649776 0.747830 -0.591945
v -0.649723 0.811510 -0.578666
v -0.649747 0.771729 -0.571370
v -0.350278 0.811510 -0.578666
v -0.350225 0.747830 -0.591945
v -0.350254 0.771729 -0.571370
v -0.350429 1.057814 -0.461072
v -0.350401 1.009249 -0.500894
v -0.350417 1.019280 -0.471471
v -0.649600 1.009249 -0.500894
v -0.649572 1.057814 -0.461072
v -0.649584 1.019280 -0.471471
v 0.649571 1.057814 -0.461072
v 0.649599 1.009249 -0.500894
v 0.649583 1.019280 -0.471471
v 0.350400 1.009249 -0.500894
v 0.350428 1.057814 -0.461072
v 0.350416 1.019280 -0.471471
v -0.649513 1.170823 -0.285493
v -0.649504 1.188681 -0.224751
v -0.649506 1.161648 -0.251023
v -0.350497 1.188681 -0.224751
v -0.350488 1.170823 -0.285493
v -0.350495 1.161648 -0.251023
v 0.350487 1.170823 -0.285493
v 0.350497 1.188681 -0.224751
v 0.350494 1.161648 -0.251023
v 0.649503 1.188681 -0.224751
v 0.649512 1.170823 -0.285493
v 0.649505 1.161648 -0.251023
v 0.649512 1.170823 0.285489
v 0.649503 1.188681 0.224747
v 0.649505 1.161648 0.251019
v 0.350497 1.188681 0.224747
v 0.350487 1.170823 0.285489
v 0.350494 1.161648 0.251019
v -0.350488 1.170823 0.285489
v -0.350497 1.188681 0.224747
v -0.350495 1.161648 0.251019
v -0.649504 1.188681 0.224747
v -0.649513 1.170823 0.285489
v -0.649506 1.161648 0.251019
v -0.800000 0.600000 -0.464883
v -0.800000 0.600000 0.464882
v 0.800000 0.600000 0.464882
v 0.800000 0.600000 -0.464883
v -0.708497 1.006912 -0.398457
v -0.708497 1.006912 0.398455
v 0.708497 1.006912 0.398455
v 0.708497 1.006912 -0.398457
v 0.171837 0.700000 0.600000
v 0.249999 0.621838 0.600000
v 0.227106 0.677107 0.600000
v -0.250000 0.621838 0.600000
v -0.171838 0.700000 0.600000
v -0.227107 0.677107 0.600000
v 0.150000 0.413160 0.600000
v 0.071837 0.334998 0.600000
v 0.127106 0.357891 0.600000
v -0.071838 0.334998 0.600000
v -0.150000 0.413160 0.600000
v -0.127107 0.357891 0.600000
v 0.057486 0.602524 0.700000
v 0.171837 0.677107 0.677106
v 0.216964 0.666965 0.666965
v 0.227106 0.621838 0.677106
v -0.057487 0.602524 0.700000
v -0.216965 0.666965 0.666965
v -0.227107 0.621838 0.677106
v -0.171838 0.677107 0.677106
v 0.057486 0.433654 0.700000
v 0.127106 0.413160 0.677106
v 0.116964 0.368033 0.666965
v 0.071837 0.357891 0.677106
v -0.057487 0.433654 0.700000
v -0.116965 0.368033 0.666965
v -0.071838 0.357891 0.677106
v -0.127107 0.413160 0.677106
v 0.250000 0.499999 0.600000
v -0.250000 0.499999 0.600000
v -0.036343 0.592805 0.620000
v 0.036342 0.592805 0.620000
v 0.036342 0.453092 0.620000
v -0.036343 0.453092 0.620000
v 0.047165 0.537527 0.700000
v -0.047166 0.537527 0.700000
v 0.025770 0.537527 0.620000
v -0.025771 0.537527 0.620000
v 0.000000 0.621961 0.700000
v 0.000000 0.602524 0.620000
v 0.227106 0.524605 0.677106
v -0.227107 0.524604 0.677106
v 0.461832 0.611833 0.725980
v 0.461832 0.688169 0.725980
v 0.538167 0.611833 0.725980
v 0.538167 0.688169 0.725980
v 0.453468 0.603469 0.700000
v 0.453468 0.650001 0.734344
v 0.453468 0.696532 0.700000
v 0.546531 0.603469 0.700000
v 0.546531 0.696532 0.700000
v 0.546531 0.650001 0.734344
v 0.499999 0.603469 0.734344
v 0.499999 0.696532 0.734344
v 0.435915 0.650001 0.700000
v 0.564084 0.650001 0.700000
v 0.499999 0.650001 0.745803
v 0.499999 0.585916 0.700000
v 0.499999 0.714085 0.700000
v -0.538168 0.611833 0.725980
v -0.538168 0.688169 0.725980
v -0.461833 0.611833 0.725980
v -0.461833 0.688169 0.725980
v -0.546532 0.603469 0.700000
v -0.546532 0.650001 0.734344
v -0.546532 0.696532 0.700000
v -0.453469 0.603469 0.700000
v -0.453469 0.696532 0.700000
v -0.453469 0.650001 0.734344
v -0.500001 0.603469 0.734344
v -0.500001 0.696532 0.734344
v -0.564085 0.650001 0.700000
v -0.435916 0.650001 0.700000
v -0.500001 0.650001 0.745803
v -0.500001 0.585916 0.700000
v -0.500001 0.714085 0.700000
vn 1.0000 -0.0000 -0.0000
vn -1.0000 -0.0000 -0.0000
vn -0.9187 0.0067 0.3949
vn -0.9291 0.0726 0.3627
vn -0.9343 0.1140 0.3377
vn 0.5448 -0.1198 0.8300
vn 0.3124 -0.1357 0.9402
vn 0.1767 -0.2101 0.9616
vn 0.5469 -0.1399 0.8254
vn -0.6049 -0.4640 0.6471
vn -0.6314 -0.7432 0.2212
vn -0.6315 -0.7444 0.2169
vn -0.6097 -0.4978 0.6168
vn -0.0000 -1.0000 -0.0000
vn -0.0000 -0.9986 -0.0529
vn -0.0000 -0.2964 0.9551
vn -0.0000 -0.2519 0.9678
vn -0.3124 -0.1357 0.9402
vn -0.1767 -0.2101 0.9616
vn -0.6049 -0.4640 -0.6471
vn -0.5448 -0.1198 -0.8300
vn -0.5469 -0.1399 -0.8254
vn -0.6097 -0.4978 -0.6168
vn -0.9366 0.3360 -0.0990
vn -0.9429 0.3127 -0.1148
vn -0.9429 0.3127 0.1148
vn -0.9366 0.3360 0.0990
vn 0.6049 -0.4640 -0.6471
vn 0.6314 -0.7432 -0.2212
vn 0.6315 -0.7444 -0.2169
vn 0.6097 -0.4978 -0.6168
vn -0.6314 -0.7432 -0.2212
vn -0.6315 -0.7444 -0.2169
vn 0.0105 0.4405 0.8977
vn -0.0371 0.6958 0.7173
vn -0.0211 0.1271 0.9917
vn 0.0106 0.3074 0.9515
vn 0.0140 0.7917 -0.6107
vn -0.0247 0.6180 -0.7858
vn -0.0328 0.9803 -0.1948
vn 0.0137 0.8831 -0.4690
vn -0.0018 0.1017 0.9948
vn -0.0379 0.3348 0.9415
vn 0.0078 0.0388 0.9992
vn 0.0078 0.0388 -0.9992
vn -0.0379 0.3348 -0.9415
vn -0.0018 0.1017 -0.9948
vn 0.0125 0.9962 -0.0859
vn -0.0311 0.9350 -0.3534
vn -0.0311 0.9350 0.3534
vn 0.0125 0.9962 0.0859
vn 0.0371 0.6958 0.7173
vn -0.0105 0.4405 0.8977
vn -0.0106 0.3074 0.9515
vn 0.0211 0.1271 0.9917
vn 0.6049 -0.4640 0.6471
vn 0.6097 -0.4978 0.6168
vn -0.9368 0.2218 -0.2706
vn -0.9422 0.2134 -0.2585
vn -0.9430 0.3260 -0.0666
vn 0.6314 -0.7432 0.2212
vn 0.6315 -0.7444 0.2169
vn 0.5448 -0.1198 -0.8300
vn 0.5469 -0.1399 -0.8254
vn -0.0000 -0.2519 -0.9678
vn -0.0000 -0.1611 -0.9869
vn 0.3124 -0.1356 -0.9402
vn 0.1767 -0.2101 -0.9616
vn -0.0000 0.7233 0.6905
vn -0.0000 0.0966 0.9953
vn -0.0078 0.0388 -0.9992
vn 0.0018 0.1017 -0.9948
vn 0.0379 0.3348 -0.9415
vn 0.0328 0.9803 0.1948
vn -0.0137 0.8831 0.4690
vn -0.0140 0.7917 0.6107
vn 0.0247 0.6180 0.7858
vn -0.9368 0.2218 0.2706
vn -0.9436 0.2282 0.2400
vn -0.9359 0.0461 0.3492
vn 0.0247 0.6180 -0.7858
vn -0.0140 0.7917 -0.6107
vn -0.0137 0.8831 -0.4690
vn 0.0328 0.9803 -0.1948
vn 0.0311 0.9350 -0.3534
vn -0.0125 0.9962 -0.0859
vn -0.0125 0.9962 0.0859
vn 0.0311 0.9350 0.3534
vn -0.3124 -0.1356 -0.9402
vn -0.1767 -0.2101 -0.9616
vn -0.5448 -0.1198 0.8300
vn -0.5469 -0.1399 0.8254
vn 0.0137 0.8831 0.4690
vn -0.0328 0.9803 0.1948
vn -0.0247 0.6180 0.7858
vn 0.0140 0.7917 0.6107
vn 0.9368 0.2218 0.2706
vn 0.9422 0.2134 0.2585
vn 0.9430 0.3260 0.0666
vn 0.9366 0.3360 0.0990
vn 0.0379 0.3348 0.9415
vn 0.0018 0.1017 0.9948
vn -0.0078 0.0388 0.9992
vn 0.9291 0.0726 0.3627
vn 0.9343 0.1140 0.3377
vn 0.9471 0.0838 0.3097
vn 0.0211 0.1271 -0.9917
vn -0.0106 0.3074 -0.9515
vn -0.0105 0.4405 -0.8977
vn 0.0371 0.6958 -0.7173
vn 0.0106 0.3074 -0.9515
vn -0.0211 0.1271 -0.9917
vn -0.0371 0.6958 -0.7173
vn 0.0105 0.4405 -0.8977
vn -0.9291 0.0726 -0.3627
vn -0.9359 0.0461 -0.3492
vn -0.9436 0.2282 -0.2400
vn -0.0000 0.6329 0.7742
vn -0.0000 0.1861 0.9825
vn -0.0000 -0.9986 0.0529
vn -0.0000 -0.2964 -0.9551
vn -0.0000 -0.9806 -0.1961
vn 0.9359 0.0461 0.3492
vn 0.9436 0.2282 0.2400
vn 0.9368 0.2218 -0.2706
vn 0.9436 0.2282 -0.2400
vn 0.9359 0.0461 -0.3492
vn 0.9291 0.0726 -0.3627
vn 0.9429 0.3127 0.1148
vn 0.9429 0.3127 -0.1148
vn 0.9366 0.3360 -0.0990
vn 0.9187 0.0067 0.3949
vn 0.9430 0.3260 -0.0666
vn 0.9422 0.2134 -0.2585
vn -0.0000 0.9590 0.2833
vn -0.0000 -0.0000 -1.0000
vn -0.0000 0.1861 -0.9825
vn -0.0000 0.6329 -0.7742
vn -0.0000 0.9590 -0.2833
vn -0.0000 -0.9806 0.1961
vn -0.0000 -0.0000 1.0000
vn -0.0000 0.3633 0.9317
vn -0.0000 0.0325 0.9995
vn -0.0000 0.9879 0.1552
vn -0.0000 0.5902 0.8073
vn -0.0000 0.0325 -0.9995
vn -0.0000 0.3633 -0.9317
vn -0.9430 0.3260 0.0666
vn -0.9422 0.2134 0.2585
vn -0.0000 0.5902 -0.8073
vn -0.0000 0.9879 -0.1552
vn -0.0000 0.9211 -0.3893
vn -0.0000 0.9211 0.3893
vn -0.0000 0.0966 -0.9953
vn -0.0000 0.7233 -0.6905
vn 0.9343 0.1140 -0.3377
vn 0.9187 0.0067 -0.3949
vn -0.9187 0.0067 -0.3949
vn -0.9343 0.1140 -0.3377
vn -0.9471 0.0838 0.3097
vn 0.9538 0.2045 0.2203
vn -0.9538 0.2045 0.2203
vn -0.9471 0.0838 -0.3097
vn 0.9471 0.0838 -0.3097
vn 0.9538 0.2045 -0.2203
vn -0.9538 0.2045 -0.2203
vn -0.9545 0.2872 -0.0798
vn 0.9545 0.2872 -0.0798
vn 0.9545 0.2872 0.0798
vn -0.9545 0.2872 0.0798
vn 0.0832 0.2596 0.9621
vn 0.0999 0.9418 0.3211
vn 0.0883 0.6498 0.7550
vn 0.0717 -0.1800 0.9811
vn -0.0000 -0.1804 0.9836
vn -0.0000 0.6524 0.7579
vn -0.0000 0.2605 0.9655
vn -0.0000 0.9465 0.3227
vn -0.0717 -0.1800 0.9811
vn -0.0883 0.6498 0.7550
vn -0.0832 0.2596 0.9621
vn -0.0999 0.9418 0.3211
vn -0.0939 0.6939 0.7140
vn -0.0980 0.9617 -0.2560
vn -0.0000 0.6969 0.7171
vn -0.0000 0.9664 -0.2572
vn 0.0939 0.6939 0.7140
vn 0.0980 0.9617 -0.2560
vn -0.0883 0.6498 -0.7549
vn -0.0717 -0.1800 -0.9811
vn -0.0831 0.2596 -0.9621
vn -0.0999 0.9418 -0.3211
vn -0.0000 0.6524 -0.7578
vn -0.0000 -0.1804 -0.9836
vn -0.0000 0.2605 -0.9655
vn -0.0000 0.9465 -0.3227
vn 0.0717 -0.1800 -0.9811
vn 0.0883 0.6498 -0.7549
vn 0.0832 0.2596 -0.9621
vn 0.0999 0.9418 -0.3211
vn 0.0939 0.6939 -0.7140
vn 0.0980 0.9617 0.2560
vn -0.0000 0.6969 -0.7171
vn -0.0000 0.9664 0.2572
vn -0.0939 0.6939 -0.7140
vn -0.0980 0.9617 0.2560
vn -0.0000 -0.1611 0.9869
vn 0.1589 0.9515 0.2634
vn 0.1569 0.9518 0.2637
vn 0.6834 0.6834 0.2565
vn 0.1551 0.0891 0.9839
vn 0.2682 0.2682 0.9253
vn 0.1323 0.1875 0.9733
vn 0.9515 0.1589 0.2634
vn 0.9518 0.1569 0.2637
vn -0.1589 0.9515 0.2634
vn -0.6834 0.6834 0.2565
vn -0.1569 0.9518 0.2637
vn -0.9515 0.1589 0.2634
vn -0.9518 0.1569 0.2637
vn -0.1323 0.1875 0.9733
vn -0.2682 0.2682 0.9253
vn -0.1551 0.0891 0.9839
vn 0.7912 -0.5719 0.2168
vn 0.8128 -0.5222 0.2582
vn 0.6834 -0.6834 0.2566
vn 0.1348 -0.2705 0.9532
vn 0.2682 -0.2682 0.9253
vn 0.2188 -0.1465 0.9647
vn 0.1589 -0.9515 0.2634
vn 0.1569 -0.9518 0.2637
vn -0.7912 -0.5719 0.2168
vn -0.6834 -0.6834 0.2565
vn -0.8128 -0.5222 0.2582
vn -0.1589 -0.9515 0.2634
vn -0.1569 -0.9518 0.2637
vn -0.2188 -0.1465 0.9647
vn -0.2682 -0.2682 0.9253
vn -0.1348 -0.2705 0.9532
vn -0.1010 0.1012 0.9897
vn -0.0000 0.3212 0.9470
vn 0.1010 0.1012 0.9897
vn 0.1608 -0.0356 0.9863
vn 0.8591 -0.3867 0.3353
vn -0.8591 -0.3867 0.3353
vn -0.8867 -0.2938 0.3570
vn 0.1882 -0.1500 0.9706
vn -0.1882 -0.1500 0.9706
vn 0.8867 -0.2937 0.3570
vn -0.1608 -0.0356 0.9863
vn -0.0000 0.9717 0.2361
vn -0.9640 -0.1070 0.2433
vn -0.9688 0.0304 0.2459
vn -0.9689 0.0290 0.2459
vn 0.9688 0.0304 0.2459
vn 0.9640 -0.1070 0.2433
vn 0.9689 0.0290 0.2459
vn -0.9555 0.1660 0.2440
vn -0.1233 -0.0402 0.9916
vn 0.1233 -0.0402 0.9916
vn 0.9555 0.1660 0.2440
vn -0.0000 -0.9760 0.2179
vn 0.2902 -0.9340 0.2085
vn -0.2902 -0.9340 0.2085
vn -0.8591 -0.3866 0.3353
vn -0.5319 -0.5319 0.6590
vn -0.6405 -0.0000 0.7679
vn -0.9020 -0.0000 0.4317
vn -0.6324 -0.6324 0.4473
vn -0.5319 0.5319 0.6590
vn -0.6324 0.6324 0.4473
vn 0.9020 -0.0000 0.4317
vn 0.6324 0.6324 0.4473
vn 0.5319 0.5319 0.6590
vn 0.6405 -0.0000 0.7679
vn 0.6324 -0.6324 0.4473
vn 0.5319 -0.5319 0.6590
vn -0.0000 -0.6405 0.7680
vn -0.0000 0.6405 0.7679
vn -0.0000 -0.9020 0.4317
vn -0.0000 0.9020 0.4317
vn -0.0000 -0.6405 0.7679
vt 0.540352 0.858247
vt 0.540352 0.897646
vt 0.514035 0.858247
vt 0.514035 0.897646
vt 0.184273 0.858337
vt 0.185623 0.866149
vt 0.185641 0.878452
vt 0.184288 0.874349
vt 0.540352 0.843395
vt 0.540352 0.832890
vt 0.541946 0.827087
vt 0.541946 0.844288
vt 0.514035 0.866396
vt 0.512441 0.869246
vt 0.512441 0.860404
vt 0.532931 0.842712
vt 0.521456 0.842712
vt 0.524914 0.842712
vt 0.529474 0.842712
vt 0.521456 0.827087
vt 0.522807 0.832890
vt 0.514035 0.832890
vt 0.512441 0.827087
vt 0.514035 0.843395
vt 0.512441 0.844288
vt 0.541946 0.884871
vt 0.541946 0.876029
vt 0.541946 0.879613
vt 0.541946 0.890281
vt 0.210614 0.945599
vt 0.209263 0.906285
vt 0.540352 0.866396
vt 0.541946 0.869246
vt 0.541946 0.860404
vt 0.532931 0.827087
vt 0.531580 0.832890
vt 0.541946 0.895238
vt 0.536376 0.893286
vt 0.536380 0.878962
vt 0.541946 0.876689
vt 0.536375 0.896805
vt 0.536373 0.904991
vt 0.541946 0.905906
vt 0.536381 0.874349
vt 0.536388 0.858337
vt 0.541946 0.858337
vt 0.541946 0.859913
vt 0.541946 0.861064
vt 0.512441 0.859913
vt 0.512441 0.876029
vt 0.512441 0.879613
vt 0.512441 0.861064
vt 0.536373 0.906285
vt 0.518011 0.893286
vt 0.512441 0.895238
vt 0.512441 0.876689
vt 0.518008 0.878962
vt 0.185652 0.900840
vt 0.184302 0.896805
vt 0.184306 0.904991
vt 0.185657 0.945599
vt 0.512441 0.842712
vt 0.539101 0.848515
vt 0.515286 0.848515
vt 0.517999 0.842712
vt 0.529486 0.893286
vt 0.524901 0.893286
vt 0.524905 0.878962
vt 0.529482 0.878962
vt 0.517999 0.858337
vt 0.512441 0.858337
vt 0.518006 0.874349
vt 0.518014 0.904991
vt 0.512441 0.905906
vt 0.518012 0.896805
vt 0.512441 0.884871
vt 0.512441 0.890281
vt 0.184300 0.893286
vt 0.184292 0.878962
vt 0.518014 0.906285
vt 0.197933 0.900840
vt 0.199283 0.896805
vt 0.199279 0.904991
vt 0.197928 0.945599
vt 0.222901 0.878452
vt 0.224253 0.874349
vt 0.224251 0.876080
vt 0.541946 0.842712
vt 0.210598 0.878452
vt 0.209248 0.878962
vt 0.209257 0.893286
vt 0.210608 0.900840
vt 0.210608 0.932090
vt 0.210598 0.909702
vt 0.222901 0.909702
vt 0.222890 0.932090
vt 0.536388 0.842712
vt 0.209259 0.896805
vt 0.209263 0.904991
vt 0.222918 0.854430
vt 0.224269 0.854430
vt 0.209230 0.854430
vt 0.210580 0.854430
vt 0.184306 0.906285
vt 0.197944 0.878452
vt 0.199293 0.878962
vt 0.199285 0.893286
vt 0.222884 0.945599
vt 0.224235 0.906285
vt 0.197961 0.866149
vt 0.199312 0.858337
vt 0.199297 0.874349
vt 0.222890 0.900840
vt 0.224240 0.896805
vt 0.224236 0.904991
vt 0.185652 0.932090
vt 0.185641 0.909702
vt 0.197944 0.909702
vt 0.197933 0.932090
vt 0.210614 0.976849
vt 0.222884 0.976849
vt 0.185657 0.976849
vt 0.197928 0.976849
vt 0.210580 0.866149
vt 0.222918 0.866149
vt 0.185623 0.854430
vt 0.184273 0.854430
vt 0.199312 0.854430
vt 0.197961 0.854430
vt 0.529481 0.874349
vt 0.524907 0.874349
vt 0.524914 0.858337
vt 0.529474 0.858337
vt 0.224242 0.893286
vt 0.224250 0.878962
vt 0.529489 0.904991
vt 0.524898 0.904991
vt 0.524900 0.896805
vt 0.529487 0.896805
vt 0.199278 0.906285
vt 0.529489 0.906285
vt 0.524898 0.906285
vt 0.224269 0.858337
vt 0.184290 0.876080
vt 0.199295 0.876080
vt 0.209247 0.876080
vt 0.209245 0.874349
vt 0.224240 0.894013
vt 0.209258 0.894013
vt 0.199284 0.894013
vt 0.184301 0.894013
vt 0.184306 0.904326
vt 0.199278 0.904326
vt 0.209263 0.904326
vt 0.224235 0.904326
vt 0.518012 0.865555
vt 0.512441 0.863988
vt 0.518012 0.862763
vt 0.518012 0.925263
vt 0.512441 0.926488
vt 0.518011 0.924536
vt 0.512441 0.907939
vt 0.518006 0.905599
vt 0.518007 0.907330
vt 0.512441 0.845439
vt 0.518007 0.844830
vt 0.518008 0.847712
vt 0.529482 0.847712
vt 0.524905 0.847712
vt 0.524906 0.844830
vt 0.529481 0.844830
vt 0.529481 0.907330
vt 0.524906 0.907330
vt 0.524907 0.905599
vt 0.529481 0.905599
vt 0.529487 0.865555
vt 0.524900 0.865555
vt 0.524901 0.862763
vt 0.529486 0.862763
vt 0.529486 0.925263
vt 0.524901 0.925263
vt 0.524901 0.924536
vt 0.529486 0.924536
vt 0.541946 0.845439
vt 0.536380 0.847712
vt 0.536380 0.844830
vt 0.541946 0.907939
vt 0.536380 0.907330
vt 0.536381 0.905599
vt 0.541946 0.863988
vt 0.536375 0.865555
vt 0.536375 0.862763
vt 0.541946 0.926488
vt 0.536375 0.925263
vt 0.536376 0.924536
vt 0.541946 0.874656
vt 0.536373 0.875035
vt 0.536373 0.873076
vt 0.541946 0.937156
vt 0.536373 0.935576
vt 0.536373 0.936241
vt 0.529489 0.875035
vt 0.524898 0.875035
vt 0.524898 0.873076
vt 0.529489 0.873076
vt 0.529489 0.935576
vt 0.524898 0.935576
vt 0.524898 0.936241
vt 0.529489 0.936241
vt 0.518014 0.875035
vt 0.512441 0.874656
vt 0.518014 0.873076
vt 0.518014 0.935576
vt 0.512441 0.937156
vt 0.518014 0.936241
vt 0.209230 0.858337
vt 0.540352 0.889497
vt 0.540352 0.874645
vt 0.514035 0.889497
vt 0.514035 0.874645
vt 0.514035 0.848515
vt 0.540352 0.848515
vt 0.199398 0.871368
vt 0.186070 0.871368
vt 0.186070 0.896302
vt 0.199398 0.896302
vt 0.195926 0.948904
vt 0.198909 0.940082
vt 0.199398 0.948904
vt 0.199398 0.911849
vt 0.195926 0.936428
vt 0.199398 0.936428
vt 0.189542 0.948904
vt 0.186070 0.948904
vt 0.186559 0.940082
vt 0.186070 0.911849
vt 0.186070 0.936428
vt 0.189542 0.936428
vt 0.199398 0.858893
vt 0.198909 0.840883
vt 0.199398 0.838299
vt 0.195926 0.850775
vt 0.195926 0.825824
vt 0.199398 0.825824
vt 0.186070 0.858893
vt 0.186070 0.838299
vt 0.186559 0.840883
vt 0.189542 0.825824
vt 0.186070 0.825824
vt 0.189542 0.850775
vt 0.189542 0.918086
vt 0.192734 0.918086
vt 0.195926 0.918086
vt 0.195926 0.894727
vt 0.199398 0.883827
vt 0.186070 0.883827
vt 0.186070 0.887174
vt 0.195926 0.871368
vt 0.189542 0.871368
vt 0.199398 0.850775
vt 0.186070 0.850775
vt 0.199398 0.887174
vt 0.189542 0.894727
vt 0.191207 0.794925
vt 0.192734 0.809897
vt 0.191207 0.809897
vt 0.191207 0.829854
vt 0.194261 0.829854
vt 0.194261 0.844826
vt 0.191207 0.844826
vt 0.194261 0.859798
vt 0.186070 0.892987
vt 0.194261 0.779953
vt 0.194261 0.794925
vt 0.191207 0.779953
vt 0.199398 0.892987
vt 0.191207 0.859798
vt 0.192734 0.859798
vt 0.194261 0.809897
vt 0.173325 0.842318
vt 0.170219 0.864131
vt 0.163700 0.864131
vt 0.170219 0.837538
vt 0.173325 0.934030
vt 0.170219 0.890722
vt 0.211299 0.864131
vt 0.204781 0.890722
vt 0.201675 0.934029
vt 0.204781 0.864131
vt 0.204781 0.837538
vt 0.201675 0.842318
vt 0.204781 0.888174
vt 0.187500 0.888174
vt 0.187500 0.861582
vt 0.187500 0.939216
vt 0.170219 0.888174
vt 0.187500 0.803464
vt 0.204781 0.813495
vt 0.187500 0.813495
vt 0.170219 0.813495
vt 0.187500 0.948840
vt 0.170219 0.938809
vt 0.187500 0.962446
vt 0.204781 0.938809
s 1
usemtl texture.001
f 159/182/37 162/182/37 165/183/37 166/183/37
f 157/184/38 156/184/38 163/185/38 164/185/38
f 208/186/39 230/187/39 196/188/40 244/189/41
f 161/190/42 318/191/43 167/192/44 171/193/45
f 157/184/46 164/194/47 185/195/48 181/196/49
f 204/197/50 203/198/50 213/199/51 212/200/51
f 203/201/52 152/202/53 315/203/54 184/204/55
f 156/184/56 155/205/57 183/206/58 182/196/59
f 176/207/37 170/208/37 231/209/37 236/210/37
f 221/211/60 298/212/61 306/212/62 193/211/63
f 159/182/64 166/213/65 175/214/66 173/215/67
f 204/216/52 167/192/44 318/191/43 154/217/53
f 164/194/47 163/194/68 186/195/69 185/195/48
f 234/218/70 255/219/71 253/220/72 233/221/73
f 231/218/74 285/222/75 301/223/76 236/224/77
f 233/221/78 252/225/79 209/226/80 169/227/80
f 172/228/37 173/208/37 234/209/37 233/229/37
f 180/230/38 181/231/38 238/232/38 237/233/38
f 168/227/81 211/226/81 271/225/82 232/221/83
f 236/224/84 300/234/85 304/234/86 235/224/87
f 265/235/88 239/236/89 240/237/90 243/238/91
f 162/182/92 161/190/42 171/193/45 170/215/93
f 224/239/94 283/240/95 291/241/96 225/242/60
f 166/213/65 165/213/97 176/214/98 175/214/66
f 160/190/99 159/182/64 173/215/67 172/193/100
f 165/213/97 162/182/92 170/215/93 176/214/98
f 184/243/38 180/230/38 237/233/38 179/243/38
f 153/244/101 151/245/101 320/245/102 321/244/102
f 203/198/50 184/243/50 179/243/50 214/246/51
f 317/191/103 160/190/99 172/193/100 174/192/104
f 259/247/105 261/248/105 247/249/106 249/250/106
f 214/251/107 179/252/107 237/237/108 273/253/109
f 313/254/110 242/255/111 239/236/112 264/256/113
f 181/231/38 185/257/38 241/258/38 238/232/38
f 197/239/114 265/259/115 243/260/116 196/188/40
f 283/256/117 238/236/118 241/255/119 291/254/120
f 182/231/38 183/230/38 240/233/38 239/232/38
f 292/261/121 241/255/122 242/255/123 312/261/124
f 163/194/68 156/184/56 182/196/59 186/195/69
f 155/205/57 316/203/125 177/204/126 183/206/58
f 315/203/54 158/205/127 180/206/128 184/204/55
f 158/205/127 157/184/46 181/196/49 180/206/128
f 173/208/37 175/207/37 235/210/37 234/209/37
f 235/224/129 303/223/130 256/222/131 234/218/132
f 198/262/133 262/263/134 309/264/135 192/265/136
f 244/253/137 240/237/138 178/252/139 208/251/139
f 186/257/38 182/231/38 239/232/38 242/258/38
f 199/266/140 252/267/141 254/268/142
f 274/238/143 237/237/144 238/236/145 282/235/146
f 185/257/38 186/257/38 242/258/38 241/258/38
f 232/221/147 270/220/148 286/219/149 231/218/150
f 167/269/37 168/269/37 232/229/37 171/228/37
f 188/270/151 268/271/152 288/272/153 220/273/94
f 201/274/154 200/275/155 199/276/155 202/277/154
f 175/207/37 176/207/37 236/210/37 235/210/37
f 210/200/156 207/199/156 206/198/50 205/197/50
f 208/246/156 178/243/50 177/243/50 206/198/50
f 205/216/157 153/217/101 317/191/103 174/192/104
f 169/269/50 209/278/156 205/197/50 174/269/50
f 167/269/50 204/197/50 211/278/51 168/269/50
f 174/269/37 172/228/37 233/229/37 169/269/37
f 177/243/38 178/243/38 240/233/38 183/230/38
f 204/197/50 212/200/51 211/278/51
f 220/273/94 289/279/95 297/280/96 221/211/60
f 190/281/158 211/282/51 212/283/51 189/284/158
f 225/242/60 292/285/61 312/285/62 191/242/63
f 201/273/114 259/272/115 249/271/116 200/270/40
f 195/286/140 247/287/159 261/288/160 198/262/133
f 223/262/161 280/288/162 276/287/163 218/286/164
f 194/289/136 304/290/165 300/290/166 222/289/167
f 229/291/168 207/292/168 246/293/141 195/286/140
f 202/294/133 256/295/134 303/296/135 194/289/136
f 226/265/167 295/264/169 279/263/170 223/262/161
f 217/188/151 274/260/152 282/259/153 224/239/94
f 197/297/154 196/298/155 195/299/155 198/300/154
f 193/301/171 201/274/154 202/277/154 194/302/171
f 191/303/171 197/297/154 198/300/154 192/304/171
f 189/305/172 188/275/173 187/276/173 190/306/172
f 216/187/172 217/298/173 218/299/173 215/291/172
f 220/274/174 221/301/175 222/302/175 219/277/174
f 224/297/174 225/303/175 226/304/175 223/300/174
f 188/275/173 220/274/174 219/277/174 187/276/173
f 217/298/173 224/297/174 223/300/174 218/299/173
f 221/301/175 193/301/171 194/302/171 222/302/175
f 225/303/175 191/303/171 192/304/171 226/304/175
f 230/307/176 208/308/156 207/309/156 229/310/176
f 203/198/50 214/246/51 213/199/51
f 200/275/155 228/305/177 227/306/177 199/276/155
f 196/298/155 230/187/177 229/291/177 195/299/155
f 250/311/178 246/312/178 207/313/179 210/314/179
f 222/289/167 301/296/169 285/295/170 219/294/161
f 219/294/161 286/315/162 270/316/163 187/266/164
f 307/317/180 309/318/180 262/319/181 258/320/181
f 212/314/182 213/313/182 277/312/183 267/311/183
f 192/265/136 310/321/165 294/321/166 226/265/167
f 193/211/63 307/280/184 258/279/185 201/273/114
f 289/320/186 279/319/186 295/318/187 297/317/187
f 210/200/156 205/197/50 209/278/156
f 298/322/188 294/323/188 310/323/189 306/322/189
f 268/250/190 276/249/190 280/248/191 288/247/191
f 227/281/176 228/284/176 210/283/156 209/282/156
f 187/266/164 271/267/192 211/324/193 190/306/193
f 213/292/193 215/291/193 218/286/164 277/293/192
f 216/307/158 215/310/158 213/309/51 214/308/51
f 191/242/63 313/241/184 264/240/185 197/239/114
f 216/187/194 214/186/194 273/189/195 217/188/151
f 208/246/156 206/198/50 207/199/156
f 243/260/116 245/325/196 196/188/40
f 245/325/196 244/189/41 196/188/40
f 246/293/141 248/326/142 195/286/140
f 248/326/142 247/287/159 195/286/140
f 249/271/116 251/327/196 200/270/40
f 251/327/196 250/328/41 200/270/40
f 227/306/168 209/324/168 252/267/141 199/266/140
f 255/315/160 257/329/197 202/294/133
f 257/329/197 256/295/134 202/294/133
f 258/279/185 260/330/198 201/273/114
f 260/330/198 259/272/115 201/273/114
f 261/288/160 263/331/197 198/262/133
f 263/331/197 262/263/134 198/262/133
f 264/240/185 266/332/198 197/239/114
f 266/332/198 265/259/115 197/239/114
f 267/328/195 269/327/199 188/270/151
f 269/327/199 268/271/152 188/270/151
f 270/316/163 272/268/200 187/266/164
f 272/268/200 271/267/192 187/266/164
f 273/189/195 275/325/199 217/188/151
f 275/325/199 274/260/152 217/188/151
f 276/287/163 278/326/200 218/286/164
f 278/326/200 277/293/192 218/286/164
f 279/263/170 281/331/201 223/262/161
f 281/331/201 280/288/162 223/262/161
f 282/259/153 284/332/202 224/239/94
f 284/332/202 283/240/95 224/239/94
f 285/295/170 287/329/201 219/294/161
f 287/329/201 286/315/162 219/294/161
f 288/272/153 290/330/202 220/273/94
f 290/330/202 289/279/95 220/273/94
f 291/241/96 293/333/203 225/242/60
f 293/333/203 292/285/61 225/242/60
f 294/321/166 296/334/204 226/265/167
f 296/334/204 295/264/169 226/265/167
f 297/280/96 299/335/203 221/211/60
f 299/335/203 298/212/61 221/211/60
f 300/290/166 302/336/204 222/289/167
f 302/336/204 301/296/169 222/289/167
f 303/296/135 305/336/205 194/289/136
f 305/336/205 304/290/165 194/289/136
f 306/212/62 308/335/206 193/211/63
f 308/335/206 307/280/184 193/211/63
f 309/264/135 311/334/205 192/265/136
f 311/334/205 310/321/165 192/265/136
f 312/285/62 314/333/206 191/242/63
f 314/333/206 313/241/184 191/242/63
f 264/337/113 239/338/112 266/339/207
f 266/340/208 239/341/89 265/342/88
f 240/343/138 244/344/137 245/345/209
f 240/346/90 245/347/210 243/348/91
f 249/349/106 247/350/106 248/351/211 251/352/211
f 251/353/212 248/354/212 246/355/178 250/356/178
f 258/357/181 262/358/181 263/359/213 260/360/213
f 260/361/214 263/362/214 261/363/105 259/364/105
f 233/365/73 253/366/72 254/367/215
f 233/368/78 254/369/216 252/370/79
f 234/371/132 256/372/131 257/373/217
f 234/374/70 257/375/218 255/376/71
f 235/377/87 304/378/86 305/379/219
f 235/380/129 305/381/220 303/382/130
f 306/383/189 310/384/189 311/385/221 308/386/221
f 308/387/222 311/388/222 309/389/180 307/390/180
f 312/391/124 242/392/123 314/393/223
f 314/394/224 242/395/111 313/396/110
f 232/368/83 271/370/82 272/369/225
f 232/365/147 272/367/226 270/366/148
f 285/372/75 231/371/74 287/373/227
f 287/375/228 231/374/150 286/376/149
f 267/356/183 277/355/183 278/354/229 269/353/229
f 269/352/230 278/351/230 276/350/190 268/349/190
f 279/358/186 289/357/186 290/360/231 281/359/231
f 281/362/232 290/361/232 288/364/191 280/363/191
f 237/346/144 274/348/143 275/347/233
f 237/343/108 275/345/234 273/344/109
f 238/338/118 283/337/117 284/339/235
f 238/341/145 284/340/236 282/342/146
f 241/392/122 292/391/121 293/393/237
f 241/395/119 293/394/238 291/396/120
f 294/384/188 298/383/188 299/386/239 296/385/239
f 296/388/240 299/387/240 297/390/187 295/389/187
f 300/378/85 236/377/84 302/379/241
f 302/381/242 236/380/77 301/382/76
f 170/208/37 171/228/37 232/229/37 231/209/37
f 202/294/133 199/266/140 253/316/159 255/315/160
f 199/266/140 254/268/142 253/316/159
f 189/305/194 212/397/194 267/328/195 188/270/151
f 210/397/39 228/305/39 200/270/40 250/328/41
f 161/190/37 162/398/37 159/398/37 160/190/37
f 318/191/37 161/399/37 160/399/37 317/191/37
f 155/205/38 156/400/38 157/400/38 158/205/38
f 316/203/38 155/401/38 158/401/38 315/203/38
f 152/245/50 151/245/50 316/402/50 315/402/50
f 153/244/50 154/244/50 318/403/50 317/403/50
f 205/216/157 206/201/157 151/202/101 153/217/101
f 321/244/50 320/245/50 319/245/50 322/244/50
f 151/245/37 152/245/37 319/245/37 320/245/37
f 152/245/53 154/244/53 322/244/243 319/245/243
f 154/244/38 153/244/38 321/244/38 322/244/38
f 203/201/52 204/216/52 154/217/53 152/202/53
f 316/203/125 151/202/101 206/201/157 177/204/126
f 329/404/172 333/405/172 352/406/172 351/407/172
f 323/408/244 336/408/245 337/409/246 325/410/246
f 338/411/247 337/409/248 336/412/249
f 324/411/250 325/413/246 337/409/246 338/411/251
f 327/414/252 328/415/253 340/416/253 342/414/254
f 326/417/255 341/417/256 340/416/253 328/418/253
f 342/419/257 340/416/258 341/417/259
f 329/420/260 344/420/261 345/421/262 331/422/262
f 346/423/263 345/421/264 344/404/265
f 330/424/266 331/425/262 345/421/262 346/424/267
f 333/426/268 334/427/269 348/428/269 350/426/270
f 332/429/271 349/429/272 348/428/269 334/430/269
f 350/405/273 348/428/274 349/431/275
f 323/408/244 327/414/252 342/414/254 336/408/245
f 342/419/257 339/432/276 361/433/277
f 335/434/278 357/435/279 338/411/247
f 344/420/261 329/420/260 351/436/280
f 352/437/281 333/426/268 350/426/270
f 352/437/281 350/426/270 364/438/282
f 343/439/283 347/440/284 349/431/275 346/423/263
f 346/424/267 349/429/272 332/429/271 330/424/266
f 331/441/172 330/423/172 332/431/172 334/442/172
f 331/441/172 334/442/172 333/405/172 329/404/172
f 357/435/279 343/439/283 344/404/265
f 363/443/285 344/420/261 351/436/280
f 350/405/273 347/440/284 358/444/286
f 339/432/276 342/419/257 341/417/259
f 347/440/284 350/405/273 349/431/275
f 335/434/278 338/411/247 336/412/249
f 343/439/283 346/423/263 344/404/265
f 360/445/177 362/446/177 353/447/177
f 347/448/287 343/449/287 355/449/287 356/448/287
f 343/449/288 357/450/289 359/450/290 355/449/288
f 358/451/291 347/448/292 356/448/292 360/451/293
f 357/450/289 335/452/294 354/452/294 359/450/290
f 339/432/276 341/417/259 358/444/286
f 364/453/295 350/405/273 358/444/286
f 355/454/177 359/455/177 360/445/177 356/456/177
f 357/435/279 344/404/265 363/457/296
f 339/458/297 358/451/291 360/451/293 353/458/297
f 361/459/298 339/458/299 353/458/299 362/459/298
f 335/452/300 361/459/298 362/459/298 354/452/300
f 359/455/177 354/460/177 362/446/177
f 360/445/177 359/455/177 362/446/177
f 335/434/278 336/412/249 361/433/277
f 336/412/249 342/419/257 361/433/277
f 324/411/250 338/411/251 351/436/280
f 326/417/255 352/437/301 341/417/256
f 338/411/247 357/435/279 363/457/296
f 338/411/251 363/443/285 351/436/280
f 341/417/259 364/453/295 358/444/286
f 341/417/256 352/437/281 364/438/282
f 365/461/302 370/462/303 377/463/304 369/464/305
f 370/462/303 366/465/306 371/466/307 377/463/304
f 378/467/308 373/468/309 368/469/310 374/470/311
f 372/471/312 378/467/308 374/470/311 367/472/313
f 367/472/313 374/473/311 379/474/177 375/475/314
f 374/473/311 368/469/310 376/476/315 379/474/177
f 379/474/177 376/476/315 366/465/306 370/477/303
f 375/475/314 379/474/177 370/477/303 365/461/302
f 380/478/316 372/479/312 367/472/313 375/480/314
f 369/481/305 380/478/316 375/480/314 365/461/302
f 381/482/317 371/483/307 366/465/306 376/484/315
f 373/485/309 381/482/317 376/484/315 368/469/310
f 382/461/302 387/462/303 394/463/304 386/464/305
f 387/462/303 383/465/306 388/466/307 394/463/304
f 395/467/308 390/468/309 385/469/310 391/470/311
f 389/471/312 395/467/308 391/470/311 384/472/313
f 384/472/313 391/473/311 396/474/177 392/475/318
f 391/473/311 385/469/310 393/476/315 396/474/177
f 396/474/177 393/476/315 383/465/306 387/477/303
f 392/475/318 396/474/177 387/477/303 382/461/302
f 397/478/316 389/479/312 384/472/313 392/480/318
f 386/481/305 397/478/316 392/480/318 382/461/302
f 398/482/317 388/483/307 383/465/306 393/484/315
f 390/485/309 398/482/317 393/484/315 385/469/310
