# Blender 4.5.3 LTS
# www.blender.org
mtllib player.mtl
o face
v -0.195678 0.530205 0.195678
v -0.233263 0.648128 0.233263
v -0.233263 0.803637 0.233263
v -0.195678 0.921560 0.195678
v -0.077754 0.492619 0.233263
v -0.102189 0.623693 0.306568
v -0.102189 0.828072 0.306568
v -0.077754 0.959146 0.233263
v 0.077754 0.492619 0.233263
v 0.102189 0.623693 0.306568
v 0.102189 0.828072 0.306568
v 0.077754 0.959146 0.233263
v 0.195678 0.530205 0.195678
v 0.233263 0.648128 0.233263
v 0.233263 0.803637 0.233263
v 0.195678 0.921560 0.195678
v 0.233263 0.492619 0.077754
v 0.306568 0.623693 0.102189
v 0.306568 0.828072 0.102189
v 0.233263 0.959146 0.077754
v 0.233263 0.492619 -0.077754
v 0.306568 0.623693 -0.102189
v 0.306568 0.828072 -0.102189
v 0.233263 0.959146 -0.077755
v 0.195678 0.530205 -0.195678
v 0.233263 0.648128 -0.233263
v 0.233263 0.803637 -0.233263
v 0.195678 0.921560 -0.195678
v 0.077754 0.492619 -0.233263
v 0.102189 0.623693 -0.306568
v 0.102189 0.828072 -0.306568
v 0.077754 0.959146 -0.233263
v -0.077754 0.492619 -0.233263
v -0.102189 0.623693 -0.306568
v -0.102189 0.828072 -0.306568
v -0.077754 0.959146 -0.233263
v -0.195678 0.530205 -0.195678
v -0.233263 0.648128 -0.233263
v -0.233263 0.803637 -0.233263
v -0.195678 0.921560 -0.195678
v -0.233263 0.492619 -0.077754
v -0.306568 0.623693 -0.102189
v -0.306568 0.828072 -0.102189
v -0.233263 0.959146 -0.077755
v -0.233263 0.492619 0.077754
v -0.306568 0.623693 0.102189
v -0.306568 0.828072 0.102189
v -0.233263 0.959146 0.077754
v -0.102189 1.032451 0.102189
v -0.102189 1.032451 -0.102189
v 0.102189 1.032451 0.102189
v 0.102189 1.032451 -0.102189
v -0.102189 0.419314 -0.102189
v -0.102189 0.419314 0.102189
v 0.102189 0.419314 -0.102189
v 0.102189 0.419314 0.102189
vn -0.2387 -0.6898 0.6835
vn -0.2509 -0.2509 0.9349
vn -0.6898 -0.2387 0.6835
vn -0.5801 -0.5801 0.5719
vn 0.2387 -0.6835 0.6898
vn 0.2476 -0.2476 0.9367
vn 0.5746 -0.5746 0.5828
vn 0.6835 -0.2387 0.6898
vn -0.2476 0.2476 0.9367
vn -0.6835 0.2387 0.6898
vn 0.2509 0.2509 0.9349
vn 0.6898 0.2387 0.6835
vn -0.2387 0.6835 0.6898
vn -0.5746 0.5746 0.5828
vn 0.2387 0.6898 0.6835
vn 0.5801 0.5801 0.5719
vn 0.6862 -0.6862 0.2415
vn 0.9349 -0.2509 0.2509
vn 0.6871 -0.6871 -0.2359
vn 0.9367 -0.2476 -0.2476
vn 0.5801 -0.5801 -0.5719
vn 0.6898 -0.2387 -0.6835
vn 0.9367 0.2476 0.2476
vn 0.9349 0.2509 -0.2509
vn 0.6835 0.2387 -0.6898
vn 0.6871 0.6871 0.2359
vn 0.6862 0.6862 -0.2415
vn 0.5746 0.5746 -0.5828
vn 0.2387 -0.6898 -0.6835
vn 0.2509 -0.2509 -0.9349
vn -0.2387 -0.6835 -0.6898
vn -0.2476 -0.2476 -0.9367
vn -0.5746 -0.5746 -0.5828
vn -0.6835 -0.2387 -0.6898
vn 0.2476 0.2476 -0.9367
vn -0.2509 0.2509 -0.9349
vn -0.6898 0.2387 -0.6835
vn 0.2387 0.6835 -0.6898
vn -0.2387 0.6898 -0.6835
vn -0.5801 0.5801 -0.5719
vn -0.6862 -0.6862 -0.2415
vn -0.9349 -0.2509 -0.2509
vn -0.6871 -0.6871 0.2359
vn -0.9367 -0.2476 0.2476
vn -0.9367 0.2476 -0.2476
vn -0.9349 0.2509 0.2509
vn -0.6871 0.6871 -0.2359
vn -0.6862 0.6862 0.2415
vn -0.2509 0.9349 0.2509
vn 0.2476 0.9367 0.2476
vn -0.2476 0.9367 -0.2476
vn 0.2509 0.9349 -0.2509
vn -0.2509 -0.9349 -0.2509
vn 0.2476 -0.9367 -0.2476
vn -0.2476 -0.9367 0.2476
vn 0.2509 -0.9349 0.2509
vt 0.462578 0.383253
vt 0.449558 0.453096
vt 0.379715 0.466116
vt 0.399743 0.403281
vt 0.545441 0.383253
vt 0.558461 0.453096
vt 0.608276 0.403281
vt 0.628303 0.466116
vt 0.449558 0.561999
vt 0.379715 0.548979
vt 0.558461 0.561999
vt 0.628303 0.548979
vt 0.462578 0.631841
vt 0.399743 0.611814
vt 0.545441 0.631841
vt 0.608276 0.611814
vt 0.628303 0.383253
vt 0.667364 0.453096
vt 0.763288 0.383176
vt 0.776314 0.453049
vt 0.667364 0.453049
vt 0.680389 0.383176
vt 0.826151 0.403212
vt 0.846187 0.466074
vt 0.667364 0.561999
vt 0.776314 0.561999
vt 0.846187 0.548973
vt 0.628303 0.631841
vt 0.763288 0.631872
vt 0.680389 0.631872
vt 0.826151 0.611836
vt 0.929085 0.383176
vt 0.916060 0.453049
vt 0.866223 0.403212
vt 1.011984 0.383176
vt 1.025010 0.453049
vt 1.074847 0.403212
vt 1.094883 0.466074
vt 0.916060 0.561999
vt 1.025010 0.561999
vt 1.094883 0.548973
vt 0.929085 0.631872
vt 0.866223 0.611836
vt 1.011984 0.631872
vt 1.074847 0.611836
vt 0.244731 0.383176
vt 0.231705 0.453049
vt 0.161832 0.466074
vt 0.181868 0.403212
vt 0.327629 0.383176
vt 0.340655 0.453049
vt 0.340655 0.453096
vt 0.379715 0.383253
vt 0.231705 0.561999
vt 0.161832 0.548973
vt 0.340655 0.561999
vt 0.244731 0.631872
vt 0.181868 0.611836
vt 0.327629 0.631872
vt 0.379715 0.631841
vt 0.449558 0.670902
vt 0.558461 0.670902
vt 0.449511 0.670902
vt 0.449511 0.779852
vt 0.379638 0.766826
vt 0.379638 0.683927
vt 0.558461 0.779852
vt 0.628334 0.683927
vt 0.628334 0.766826
vt 0.462536 0.849725
vt 0.399674 0.829689
vt 0.545435 0.849725
vt 0.608298 0.829689
vt 0.646387 0.343715
vt 0.646387 0.364126
vt 0.625976 0.364126
vt 0.625976 0.343715
vt 0.625038 0.343715
vt 0.625038 0.364126
vt 0.604627 0.364126
vt 0.604627 0.343715
vt 0.449558 0.344193
vt 0.558461 0.344193
s 1
usemtl Material.001
f 5/1/1 6/2/2 2/3/3 1/4/4
f 9/5/5 10/6/6 6/2/2 5/1/1
f 13/7/7 14/8/8 10/6/6 9/5/5
f 6/2/2 7/9/9 3/10/10 2/3/3
f 10/6/6 11/11/11 7/9/9 6/2/2
f 14/8/8 15/12/12 11/11/11 10/6/6
f 7/9/9 8/13/13 4/14/14 3/10/10
f 11/11/11 12/15/15 8/13/13 7/9/9
f 15/12/12 16/16/16 12/15/15 11/11/11
f 17/17/17 18/18/18 14/8/8 13/7/7
f 21/19/19 22/20/20 18/21/18 17/22/17
f 25/23/21 26/24/22 22/20/20 21/19/19
f 18/18/18 19/25/23 15/12/12 14/8/8
f 22/20/20 23/26/24 19/25/23 18/21/18
f 26/24/22 27/27/25 23/26/24 22/20/20
f 19/25/23 20/28/26 16/16/16 15/12/12
f 23/26/24 24/29/27 20/30/26 19/25/23
f 27/27/25 28/31/28 24/29/27 23/26/24
f 29/32/29 30/33/30 26/24/22 25/34/21
f 33/35/31 34/36/32 30/33/30 29/32/29
f 37/37/33 38/38/34 34/36/32 33/35/31
f 30/33/30 31/39/35 27/27/25 26/24/22
f 34/36/32 35/40/36 31/39/35 30/33/30
f 38/38/34 39/41/37 35/40/36 34/36/32
f 31/39/35 32/42/38 28/43/28 27/27/25
f 35/40/36 36/44/39 32/42/38 31/39/35
f 39/41/37 40/45/40 36/44/39 35/40/36
f 41/46/41 42/47/42 38/48/34 37/49/33
f 45/50/43 46/51/44 42/47/42 41/46/41
f 1/4/4 2/3/3 46/52/44 45/53/43
f 42/47/42 43/54/45 39/55/37 38/48/34
f 46/51/44 47/56/46 43/54/45 42/47/42
f 2/3/3 3/10/10 47/56/46 46/52/44
f 43/54/45 44/57/47 40/58/40 39/55/37
f 47/56/46 48/59/48 44/57/47 43/54/45
f 3/10/10 4/14/14 48/60/48 47/56/46
f 8/13/13 49/61/49 48/60/48 4/14/14
f 12/15/15 51/62/50 49/61/49 8/13/13
f 16/16/16 20/28/26 51/62/50 12/15/15
f 49/63/49 50/64/51 44/65/47 48/66/48
f 51/62/50 52/67/52 50/64/51 49/63/49
f 20/68/26 24/69/27 52/67/52 51/62/50
f 50/64/51 36/70/39 40/71/40 44/65/47
f 52/67/52 32/72/38 36/70/39 50/64/51
f 24/69/27 28/73/28 32/72/38 52/67/52
f 33/74/31 53/75/53 41/76/41 37/77/33
f 29/74/29 55/75/54 53/76/53 33/77/31
f 25/74/21 21/75/19 55/76/54 29/77/29
f 53/74/53 54/75/55 45/76/43 41/77/41
f 55/78/54 56/79/56 54/80/55 53/81/53
f 21/74/19 17/75/17 56/76/56 55/77/54
f 54/82/55 5/1/1 1/4/4 45/53/43
f 56/83/56 9/5/5 5/1/1 54/82/55
f 17/17/17 13/7/7 9/5/5 56/83/56
o body
v 0.095982 0.445249 0.095982
v 0.000000 0.445249 -0.000000
v 0.165209 0.000000 0.000000
v 0.232673 0.034401 -0.000000
v 0.244116 0.076241 -0.000000
v 0.180683 0.291354 -0.000000
v 0.135740 0.445249 -0.000000
v 0.135740 0.445249 -0.000000
v 0.116821 0.000000 -0.116821
v 0.164525 0.034401 -0.164525
v 0.172616 0.076241 -0.172616
v 0.127762 0.291354 -0.127762
v 0.095982 0.445249 -0.095982
v 0.095982 0.445249 -0.095982
v 0.000000 0.000000 -0.165209
v 0.000000 0.034401 -0.232673
v 0.000000 0.076241 -0.244116
v 0.000000 0.291354 -0.180683
v 0.000000 0.445249 -0.135740
v 0.000000 0.445249 -0.135740
v -0.116821 0.000000 -0.116821
v -0.164525 0.034401 -0.164525
v -0.172616 0.076241 -0.172616
v -0.127762 0.291354 -0.127762
v -0.095982 0.445249 -0.095982
v -0.095982 0.445249 -0.095982
v -0.165209 0.000000 0.000000
v -0.232673 0.034401 -0.000000
v -0.244116 0.076241 -0.000000
v -0.180683 0.291354 -0.000000
v -0.135740 0.445249 -0.000000
v -0.135740 0.445249 -0.000000
v -0.116821 0.000000 0.116821
v -0.164525 0.034401 0.164525
v -0.172616 0.076241 0.172616
v -0.127762 0.291354 0.127762
v -0.095982 0.445249 0.095982
v -0.095982 0.445249 0.095982
v -0.000000 0.000000 0.165209
v -0.000000 0.034401 0.232673
v -0.000000 0.076241 0.244116
v -0.000000 0.291354 0.180683
v -0.000000 0.445249 0.135740
v -0.000000 0.445249 0.135740
v 0.116821 0.000000 0.116821
v 0.164525 0.034401 0.164525
v 0.172616 0.076241 0.172616
v 0.127762 0.291354 0.127762
v 0.095982 0.445249 0.095982
v 0.162617 0.358029 -0.000000
v 0.114987 0.358028 -0.114987
v 0.000000 0.358028 -0.162617
v -0.114987 0.358028 -0.114987
v -0.162617 0.358029 -0.000000
v -0.114987 0.358029 0.114987
v -0.000000 0.358029 0.162617
v 0.114987 0.358029 0.114987
v 0.208257 0.463946 -0.000000
v 0.147260 0.463946 -0.147260
v 0.000000 0.463946 -0.208257
v -0.147260 0.463946 -0.147260
v -0.208257 0.463946 -0.000000
v -0.147260 0.463946 0.147260
v -0.000000 0.463946 0.208257
v 0.147260 0.463946 0.147260
v 0.228007 0.374888 -0.000000
v 0.161225 0.374888 -0.161225
v 0.000000 0.374888 -0.228007
v -0.161225 0.374888 -0.161225
v -0.228007 0.374888 -0.000000
v -0.161225 0.374888 0.161225
v -0.000000 0.374888 0.228007
v 0.161225 0.374888 0.161225
vn -0.0000 -0.9728 -0.2316
vn 0.2183 -0.9512 -0.2183
vn 0.3087 -0.9512 -0.0000
vn 0.1306 -0.9828 0.1306
vn 0.5428 -0.6409 -0.5428
vn 0.7677 -0.6409 -0.0000
vn 0.7071 0.0100 -0.7071
vn 1.0000 0.0100 -0.0000
vn 0.6804 0.2722 -0.6804
vn 0.9622 0.2722 -0.0000
vn 0.6825 0.2615 -0.6825
vn 0.9652 0.2615 -0.0000
vn 0.9763 0.2165 -0.0000
vn 0.6903 0.2165 0.6903
vn -0.1306 -0.9828 0.1306
vn -0.1638 -0.9728 -0.1638
vn -0.0000 -0.6409 -0.7677
vn -0.0000 0.0100 -1.0000
vn -0.0000 0.2721 -0.9623
vn -0.0000 0.2165 -0.9763
vn 0.6903 0.2165 -0.6903
vn 0.5428 -0.6409 0.5428
vn -0.0000 -0.6409 0.7677
vn -0.0000 -0.9512 0.3087
vn -0.5428 -0.6409 -0.5428
vn -0.7071 0.0099 -0.7071
vn -0.6804 0.2722 -0.6804
vn -0.6825 0.2615 -0.6825
vn -0.0000 0.2615 -0.9652
vn 0.7071 0.0099 0.7071
vn -0.0000 0.0100 1.0000
vn -0.3087 -0.9512 -0.0000
vn -0.7677 -0.6409 -0.0000
vn -1.0000 0.0100 -0.0000
vn -0.9622 0.2722 -0.0000
vn -0.9763 0.2165 -0.0000
vn -0.6903 0.2165 -0.6903
vn 0.6804 0.2722 0.6804
vn -0.0000 0.2721 0.9623
vn -0.5428 -0.6409 0.5428
vn -0.7071 0.0100 0.7071
vn -0.6804 0.2722 0.6804
vn -0.6825 0.2615 0.6825
vn -0.9652 0.2615 -0.0000
vn 0.6825 0.2615 0.6825
vn -0.0000 0.2615 0.9652
vn -0.0000 0.2165 0.9763
vn -0.6903 0.2165 0.6903
vn 0.0709 0.9950 0.0709
vn -0.1255 0.9921 -0.0000
vn -0.1183 0.9859 0.1183
vn -0.0000 0.9859 0.1673
vn -0.0000 0.9921 -0.1255
vn -0.1183 0.9859 -0.1183
vn 0.1673 0.9859 -0.0000
vn 0.1183 0.9859 -0.1183
vn 0.2497 -0.9683 -0.0000
vn 0.1765 -0.9683 0.1765
vn -0.1765 0.9683 -0.1765
vn -0.2497 0.9683 -0.0000
vn -0.0000 -0.9683 -0.2497
vn 0.1765 -0.9683 -0.1765
vn -0.1765 0.9683 0.1765
vn -0.0000 0.9683 0.2497
vn -0.2497 -0.9683 -0.0000
vn -0.1765 -0.9683 -0.1765
vn 0.1765 0.9683 0.1765
vn 0.2497 0.9683 -0.0000
vn -0.0000 -0.9683 0.2497
vn -0.1765 -0.9683 0.1765
vn 0.1765 0.9683 -0.1765
vn -0.0000 0.9683 -0.2497
vt 0.318159 0.027398
vt 0.318159 0.086526
vt 0.259030 0.086526
vt 0.259030 0.027398
vt 0.752631 0.021699
vt 0.752631 0.089507
vt 0.684823 0.089507
vt 0.684823 0.021699
vt 0.672411 0.278983
vt 0.672411 0.335642
vt 0.615753 0.335642
vt 0.615753 0.278983
vt 0.672411 0.301121
vt 0.615753 0.301121
vt 0.634826 0.198165
vt 0.623928 0.247306
vt 0.590272 0.247306
vt 0.597977 0.198165
vt 0.589393 0.110517
vt 0.582527 0.152073
vt 0.509017 0.152073
vt 0.509017 0.110517
vt 0.428640 0.110517
vt 0.435506 0.152073
vt 0.405057 0.152073
vt 0.395347 0.110517
vt 0.445569 0.188863
vt 0.419288 0.188863
vt 0.572464 0.188863
vt 0.509017 0.188863
vt 0.622686 0.110517
vt 0.612976 0.152073
vt 0.509017 0.198165
vt 0.509017 0.247306
vt 0.427761 0.247306
vt 0.420056 0.198165
vt 0.671910 0.279484
vt 0.671910 0.338612
vt 0.612782 0.338612
vt 0.612782 0.279484
vt 0.598745 0.188863
vt 0.394105 0.247306
vt 0.383207 0.198165
vt 0.560967 0.259716
vt 0.585715 0.259716
vt 0.441470 0.259716
vt 0.501218 0.259716
vt 0.416722 0.259716
s 1
usemtl Material.002
f 71/84/57 65/85/58 59/86/59 101/87/60
f 65/84/58 66/85/61 60/86/62 59/87/59
f 66/88/61 67/89/63 61/90/64 60/91/62
f 67/92/63 68/93/65 62/94/66 61/95/64
f 68/92/65 107/96/67 106/97/68 62/95/66
f 122/98/69 114/99/69 121/100/70 129/101/70
f 89/84/71 77/85/72 71/86/57 101/87/60
f 71/84/57 72/85/73 66/86/61 65/87/58
f 72/88/73 73/89/74 67/90/63 66/91/61
f 73/92/74 74/93/75 68/94/65 67/95/63
f 124/96/76 116/93/76 115/94/77 123/97/77
f 101/84/60 102/85/78 96/86/79 95/87/80
f 95/85/80 89/86/71 101/87/60
f 77/84/72 78/85/81 72/86/73 71/87/57
f 78/88/81 79/89/82 73/90/74 72/91/73
f 79/92/82 80/93/83 74/94/75 73/95/74
f 80/92/83 109/96/84 108/97/85 74/95/75
f 102/88/78 103/89/86 97/90/87 96/91/79
f 89/85/71 83/86/88 77/87/72
f 83/84/88 84/85/89 78/86/81 77/87/72
f 84/88/89 85/89/90 79/90/82 78/91/81
f 85/92/90 86/93/91 80/94/83 79/95/82
f 126/96/92 118/93/92 117/94/93 125/97/93
f 103/102/86 104/103/94 98/104/95 97/105/87
f 60/88/62 61/89/64 103/90/86 102/91/78
f 89/84/71 90/85/96 84/86/89 83/87/88
f 90/88/96 91/89/97 85/90/90 84/91/89
f 91/106/97 92/107/98 86/108/91 85/109/90
f 92/107/98 111/110/99 110/111/100 86/108/91
f 104/103/94 113/112/101 112/113/102 98/104/95
f 61/114/64 62/115/66 104/103/94 103/102/86
f 95/84/80 96/85/79 90/86/96 89/87/71
f 96/88/79 97/89/87 91/90/97 90/91/96
f 97/105/87 98/104/95 92/107/98 91/106/97
f 128/116/103 120/117/103 119/118/104 127/119/104
f 59/84/59 60/85/62 102/86/78 101/87/60
f 81/120/105 63/121/106 69/122/107 75/123/108
f 99/120/109 105/121/110 63/122/106 81/123/105
f 81/120/105 87/121/111 93/122/112 99/123/109
f 123/96/77 115/93/77 114/94/69 122/97/69
f 113/112/101 104/103/94 62/115/66 106/124/68
f 107/97/67 68/95/65 74/92/75 108/96/85
f 125/96/93 117/93/93 116/94/76 124/97/76
f 109/97/84 80/95/83 86/92/91 110/96/100
f 127/119/104 119/118/104 118/125/92 126/126/92
f 129/101/70 121/100/70 120/117/103 128/116/103
f 111/110/99 92/107/98 98/104/95 112/113/102
f 106/124/113 122/98/113 129/101/114 113/112/114
f 105/127/110 121/127/115 114/128/116 63/128/106
f 108/96/117 124/96/117 123/97/118 107/97/118
f 69/94/107 115/94/119 116/93/120 75/93/108
f 110/96/121 126/96/121 125/97/122 109/97/122
f 81/94/105 117/94/123 118/93/124 87/93/111
f 112/113/125 128/116/125 127/119/126 111/110/126
f 93/129/112 119/129/127 120/130/128 99/130/109
f 107/96/118 123/96/118 122/97/113 106/97/113
f 63/94/106 114/94/116 115/93/119 69/93/107
f 109/96/122 125/96/122 124/97/117 108/97/117
f 75/94/108 116/94/120 117/93/123 81/93/105
f 111/110/126 127/119/126 126/126/121 110/111/121
f 87/131/111 118/131/124 119/129/127 93/129/112
f 113/112/114 129/101/114 128/116/125 112/113/125
f 99/130/109 120/130/128 121/127/115 105/127/110
